<svg width="20" height="20" fill="none" xmlns="http://www.w3.org/2000/svg"><path d="M20 10c0 5.523-4.477 10-10 10S0 15.523 0 10 4.477 0 10 0s10 4.477 10 10Zm-2.202-1.801Q18 9.076 18 10q0 .924-.202 1.8-.154.67-.426 1.313-.28.663-.667 1.255-.451.692-1.048 1.289t-1.289 1.048q-.592.387-1.255.667-.642.272-1.312.426Q10.924 18 10 18q-.924 0-1.8-.202-.67-.154-1.313-.426-.663-.28-1.255-.667-.692-.451-1.289-1.048t-1.048-1.289q-.387-.592-.667-1.255-.272-.642-.426-1.312Q2 10.924 2 10q0-.924.202-1.8.154-.67.426-1.313.28-.663.667-1.255.451-.692 1.048-1.289t1.289-1.048q.592-.387 1.255-.667.642-.272 1.312-.426Q9.076 2 10 2q.924 0 1.8.202.67.154 1.313.426.663.28 1.255.667.692.451 1.289 1.048t1.048 1.289q.387.592.667 1.255.272.642.426 1.312Z" fill="#FFF" fill-rule="evenodd"/></svg>