<svg width="170" height="64" fill="none" xmlns="http://www.w3.org/2000/svg"><path d="M165.563 18.108c1.49 1.918 2.55 4.118 3.311 6.55l.05-.067c.646 2.448 1.076 5.094 1.076 7.938 0 2.861-.331 5.507-1.059 7.938-.762 2.43-1.821 4.664-3.311 6.45-1.507 1.802-3.311 3.274-5.546 4.332-1.49.645-3.096 1.175-4.801 1.39 0 0-3.195.512-6.919-.215-1.275-.232-2.45-.53-3.526-1.059-.1 0-.1-.116-.232-.116 0-.099-.1-.099-.1-.099h-.082a12.703 12.703 0 0 1-1.821-1.058 17.653 17.653 0 0 1-3.642-3.275 21.378 21.378 0 0 1-3.311-6.45c-.745-2.43-1.076-5.076-1.076-7.937 0-2.745.331-5.49 1.059-7.905.762-2.547 1.821-4.647 3.311-6.566 1.49-1.786 3.311-3.274 5.463-4.332 1.987-.927 4.238-1.472 6.787-1.588 1.722-.1 3.212 0 4.371.198l1.572.331c0 .116.116.116.199.116.116.116.232.116.331.116.215 0 .447.132.447.132.629.165 1.374.496 1.987.827 2.152 1.042 3.973 2.43 5.462 4.35Zm-21.636 8.864c.43-1.654.96-3.258 1.705-4.531.745-1.257 1.705-2.315 2.765-3.043a6.493 6.493 0 0 1 3.724-1.157c1.391 0 2.566.297 3.642 1.041 1.06.728 1.904 1.654 2.649 2.845.745 1.273 1.291 2.646 1.705 4.332.447 1.688.662 3.391.662 5.293v.628a30.47 30.47 0 0 1-.529 5.49c-.431 1.704-.961 3.176-1.706 4.466-.745 1.257-1.705 2.2-2.781 2.943-1.059.744-2.317 1.059-3.724 1.059-1.391 0-2.649-.33-3.725-1.059-1.076-.744-2.036-1.686-2.781-2.976-.762-1.257-1.291-2.729-1.722-4.432-.414-1.687-.53-3.59-.53-5.49.116-1.82.332-3.705.663-5.392l-.017-.017Zm-23.358 26.03-4.139 4.747-.43.43.43 5.821h6.39l6.721-7.508v-23.88l-.198-1.82-8.774 4.532v17.678Z" clip-rule="evenodd" fill="#FFF" fill-rule="evenodd"/><path d="M66.696 10.861 62.548 6.25 62 5.856 62.431 0l6.389.098 6.87 7.426v24.16l-.2 1.341-8.794-4.58V10.861Zm62.192 12.971c-.763-2.404-1.825-4.58-3.318-6.477-1.494-1.898-3.319-3.271-5.476-4.302-.614-.327-1.361-.654-1.992-.818 0 0-.232-.13-.448-.13-.099 0-.199 0-.331-.115-.083 0-.2 0-.2-.114l-1.576-.328c-1.161-.196-2.655-.294-4.381-.196-2.555.114-4.812.654-6.803 1.57-2.157 1.047-3.982 2.52-5.476 4.286-1.493 1.898-2.555 3.975-3.318 6.494-.73 2.388-1.046 5.103-1.046 7.818 0 2.83.332 5.448 1.062 7.852a21.054 21.054 0 0 0 3.319 6.38c1.078 1.26 2.257 2.29 3.65 3.238a12.75 12.75 0 0 0 1.826 1.047h.083s.116 0 .116.098c.099 0 .099.115.216.115 1.062.523 2.24.818 3.517 1.047 3.734.72 6.936.212 6.936.212 1.71-.212 3.319-.736 4.813-1.374a15.991 15.991 0 0 0 5.558-4.285c1.494-1.767 2.556-3.975 3.319-6.38.73-2.404 1.062-5.021 1.062-7.851 0-2.814-.332-5.431-1.079-7.852l-.033.066Zm-48.42-12.316h8.961V52h-8.96V11.516Zm25.223 10.125c-.747 1.26-1.278 2.846-1.693 4.482l.017.016c-.432 1.669-.548 3.533-.664 5.333 0 1.88.099 3.762.531 5.43.431 1.685.962 3.141 1.709 4.384.747 1.276 1.709 2.208 2.771 2.944 1.079.72 2.356 1.047 3.767 1.047 1.377 0 2.671-.31 3.733-1.047 1.062-.736 2.025-1.668 2.755-2.911.747-1.276 1.294-2.732 1.709-4.417.332-1.668.564-3.55.564-5.43v-.622c0-1.881-.232-3.566-.664-5.234-.431-1.669-.962-3.027-1.709-4.286-.746-1.178-1.609-2.094-2.655-2.813-1.078-.737-2.256-1.031-3.65-1.031-1.411 0-2.672.409-3.734 1.145-1.078.72-2.041 1.767-2.787 3.01Z" clip-rule="evenodd" fill="#FFF" fill-rule="evenodd"/><path d="M84.874 2c-2.277 0-4.125 1.868-4.125 4.17 0 2.418 1.848 4.27 4.125 4.17C87.152 10.34 89 8.472 89 6.17 89 3.868 87.152 2 84.874 2Zm-53.98 16.997c1.485 1.934 2.54 4.152 3.3 6.605l.033-.067c.743 2.468 1.073 5.137 1.073 8.006 0 2.885-.33 5.554-1.056 8.006-.76 2.452-1.816 4.704-3.301 6.505-1.485 1.818-3.3 3.303-5.529 4.37-1.485.65-3.086 1.184-4.785 1.401 0 0-3.186.517-6.899-.217-1.27-.233-2.442-.533-3.515-1.067-.099 0-.099 0-.198-.117 0-.1-.115-.1-.115-.1h-.083a12.62 12.62 0 0 1-1.815-1.068c-1.386-.967-2.558-2.018-3.63-3.302C2.887 46.117 1.831 44 1.072 41.447.33 38.995 0 36.327 0 33.44c0-2.77.33-5.538 1.056-7.973.76-2.569 1.816-4.687 3.3-6.622 1.486-1.801 3.301-3.302 5.447-4.37 1.98-.934 4.224-1.484 6.766-1.601 1.716-.1 3.201 0 4.357.2l1.567.334c0 .116.116.116.199.116.131.117.23.117.33.117.214 0 .445.134.445.134.627.166 1.37.5 1.98.834 2.146 1.05 3.961 2.451 5.446 4.387Zm40.283 0c1.485 1.934 2.541 4.152 3.3 6.605l.05-.067c.644 2.468 1.056 5.137 1.056 8.006 0 2.885-.313 5.554-1.04 8.006-.759 2.452-1.815 4.704-3.3 6.505-1.502 1.818-3.3 3.303-5.529 4.37-1.485.65-3.086 1.184-4.785 1.401 0 0-3.185.517-6.899-.217-1.287-.233-2.442-.533-3.515-1.067-.099 0-.099-.117-.23-.117 0-.1-.1-.1-.1-.1s-1.27-.634-1.898-1.068a17.674 17.674 0 0 1-3.63-3.302c-1.386-1.835-2.542-4.053-3.3-6.505-.743-2.452-1.074-5.12-1.074-8.006 0-2.77.33-5.538 1.057-7.973.759-2.569 1.815-4.687 3.3-6.622 1.486-1.801 3.3-3.302 5.446-4.37 1.98-.934 4.225-1.484 6.766-1.601 1.7-.1 3.186 0 4.34.2l1.585.334c0 .116.099.116.198.116.115.117.231.117.33.117.215 0 .446.134.446.134.627.166 1.37.5 1.98.834 2.145 1.05 3.96 2.451 5.446 4.387ZM9.44 27.937c.412-1.668.94-3.286 1.683-4.57.743-1.268 1.7-2.336 2.772-3.07a6.31 6.31 0 0 1 3.714-1.167c1.386 0 2.557.3 3.63 1.05 1.04.735 1.898 1.669 2.64 2.87.743 1.284 1.271 2.668 1.7 4.37.43 1.7.66 3.419.66 5.337l-.032.634a29.59 29.59 0 0 1-.529 5.537c-.412 1.719-.957 3.203-1.7 4.504-.726 1.267-1.683 2.218-2.739 2.969-1.056.75-2.343 1.067-3.713 1.067-1.403 0-2.673-.333-3.746-1.067-1.056-.75-2.013-1.702-2.756-3.003-.66-1.05-1.155-2.535-1.6-4.336-.43-1.718-.545-3.67-.545-5.571 0-1.918.115-3.836.528-5.538l.033-.017Zm40.168 0c.429-1.668.957-3.286 1.7-4.57.742-1.268 1.7-2.336 2.755-3.07a6.423 6.423 0 0 1 3.714-1.167c1.386 0 2.557.3 3.63 1.05 1.056.735 1.898 1.669 2.64 2.87.743 1.284 1.271 2.668 1.7 4.37.446 1.7.66 3.419.66 5.337v.634c0 1.918-.214 3.836-.528 5.537-.429 1.719-.957 3.203-1.7 4.504-.742 1.267-1.7 2.218-2.772 2.969-1.056.75-2.31 1.067-3.713 1.067-1.386 0-2.64-.333-3.713-1.067-1.073-.75-2.03-1.702-2.773-3.003-.759-1.267-1.287-2.752-1.716-4.47-.412-1.7-.528-3.619-.528-5.537.116-1.835.33-3.736.66-5.438l-.016-.017Z" clip-rule="evenodd" fill="#FFF" fill-rule="evenodd"/></svg>