<svg width="82" height="31" fill="none" xmlns="http://www.w3.org/2000/svg"><path d="M79.864 8.937c.717.922 1.227 1.98 1.594 3.148l.024-.032c.31 1.177.518 2.45.518 3.817 0 1.375-.16 2.647-.51 3.816-.367 1.169-.877 2.242-1.594 3.1a7.773 7.773 0 0 1-2.67 2.084c-.718.31-1.49.564-2.312.668 0 0-1.538.246-3.332-.104-.613-.11-1.18-.254-1.697-.508-.048 0-.048-.056-.112-.056 0-.048-.048-.048-.048-.048h-.04a6.114 6.114 0 0 1-.876-.509 8.496 8.496 0 0 1-1.754-1.574 10.278 10.278 0 0 1-1.594-3.1c-.359-1.17-.518-2.441-.518-3.817 0-1.32.16-2.64.51-3.8.367-1.225.877-2.235 1.594-3.157a8.036 8.036 0 0 1 2.63-2.083c.957-.445 2.041-.708 3.268-.763.83-.048 1.547 0 2.105.095l.757.16c0 .055.056.055.096.055.055.055.111.055.159.055.103 0 .215.064.215.064.303.08.662.239.957.398 1.036.5 1.913 1.168 2.63 2.09Zm-10.418 4.261c.208-.795.463-1.566.821-2.178.359-.604.821-1.113 1.331-1.463A3.13 3.13 0 0 1 73.392 9c.67 0 1.235.143 1.753.501.51.35.917.795 1.276 1.368.358.612.621 1.272.82 2.083.216.81.32 1.63.32 2.544v.302c0 .914-.104 1.829-.256 2.64-.207.819-.462 1.526-.82 2.146A4.486 4.486 0 0 1 75.144 22c-.51.358-1.116.509-1.793.509-.67 0-1.275-.16-1.794-.51a4.381 4.381 0 0 1-1.339-1.43c-.366-.605-.621-1.312-.828-2.131-.2-.811-.256-1.726-.256-2.64.056-.874.16-1.78.32-2.592l-.009-.008ZM58.2 25.713l-1.993 2.282L56 28.2l.207 2.8h3.077l3.236-3.61V15.91l-.096-.875-4.224 2.178v8.5Z" clip-rule="evenodd" fill="#FFF" fill-rule="evenodd"/><path d="m32.279 5.222-2.013-2.218L30 2.815 30.21 0l3.1.047 3.334 3.57v11.616l-.097.645-4.268-2.202V5.222Zm30.181 6.236c-.37-1.156-.885-2.202-1.61-3.114-.725-.912-1.61-1.573-2.657-2.068a4.793 4.793 0 0 0-.967-.394s-.112-.063-.217-.063c-.048 0-.097 0-.161-.055-.04 0-.097 0-.097-.055l-.765-.157c-.564-.094-1.288-.141-2.126-.094-1.24.055-2.335.314-3.301.755a8.092 8.092 0 0 0-2.658 2.06c-.725.912-1.24 1.911-1.61 3.122-.355 1.148-.508 2.454-.508 3.76 0 1.36.161 2.618.516 3.774a10.09 10.09 0 0 0 1.61 3.067 8.737 8.737 0 0 0 1.772 1.557c.306.204.564.354.886.503h.04s.056 0 .056.047c.049 0 .049.055.105.055.515.252 1.087.394 1.707.504 1.812.346 3.366.102 3.366.102.83-.102 1.61-.354 2.335-.66a7.756 7.756 0 0 0 2.698-2.06c.725-.85 1.24-1.912 1.61-3.068.355-1.156.516-2.414.516-3.775 0-1.352-.161-2.61-.523-3.774l-.016.031ZM38.964 5.536h4.348V25h-4.348V5.536Zm12.24 4.868c-.363.606-.62 1.369-.822 2.155l.008.008c-.209.802-.265 1.698-.322 2.563 0 .905.049 1.81.258 2.611.21.81.467 1.51.83 2.108a4.442 4.442 0 0 0 1.344 1.416c.524.346 1.144.503 1.828.503.669 0 1.297-.15 1.812-.503a4.433 4.433 0 0 0 1.337-1.4c.362-.614.628-1.314.83-2.124.16-.802.273-1.706.273-2.61v-.3c0-.904-.113-1.714-.322-2.516-.21-.802-.467-1.455-.83-2.06a4.574 4.574 0 0 0-1.288-1.353c-.523-.354-1.095-.495-1.772-.495a3.15 3.15 0 0 0-1.811.55c-.524.346-.99.85-1.353 1.447Z" clip-rule="evenodd" fill="#FFF" fill-rule="evenodd"/><path d="M41.007 1a2 2 0 0 0-1.994 2.005c0 1.163.893 2.053 1.994 2.004A2 2 0 0 0 43 3.005 2 2 0 0 0 41.007 1ZM14.926 9.171c.718.93 1.228 1.997 1.595 3.176l.016-.032c.358 1.187.518 2.47.518 3.849 0 1.387-.16 2.67-.51 3.849-.367 1.179-.878 2.261-1.595 3.127a7.71 7.71 0 0 1-2.671 2.101c-.718.313-1.491.57-2.312.674 0 0-1.54.248-3.333-.104-.614-.113-1.18-.257-1.699-.514-.047 0-.047 0-.095-.056 0-.048-.056-.048-.056-.048h-.04a6.096 6.096 0 0 1-.877-.513 8.736 8.736 0 0 1-1.754-1.588c-.718-.882-1.228-1.9-1.595-3.127C.16 18.786 0 17.503 0 16.115c0-1.33.16-2.661.51-3.832.367-1.235.877-2.254 1.595-3.184A8.05 8.05 0 0 1 4.736 7c.957-.45 2.041-.714 3.27-.77.828-.049 1.546 0 2.104.096l.758.16c0 .056.055.056.095.056.064.056.112.056.16.056.103 0 .215.064.215.064.303.08.662.241.957.401 1.036.506 1.913 1.18 2.631 2.11Zm19.463 0c.717.93 1.228 1.997 1.594 3.176l.024-.032c.311 1.187.51 2.47.51 3.849 0 1.387-.15 2.67-.502 3.849-.366 1.179-.877 2.261-1.594 3.127a7.784 7.784 0 0 1-2.671 2.101c-.718.313-1.491.57-2.313.674 0 0-1.538.248-3.332-.104-.622-.113-1.18-.257-1.699-.514-.048 0-.048-.056-.111-.056 0-.048-.048-.048-.048-.048s-.614-.305-.917-.513a8.525 8.525 0 0 1-1.754-1.588 10.22 10.22 0 0 1-1.595-3.127c-.359-1.179-.518-2.462-.518-3.85 0-1.33.16-2.661.51-3.832.367-1.235.877-2.254 1.595-3.184A8.049 8.049 0 0 1 24.199 7c.957-.45 2.041-.714 3.269-.77.821-.049 1.539 0 2.097.096l.765.16c0 .056.048.056.096.056.056.056.112.056.16.056.103 0 .215.064.215.064.303.08.662.241.957.401 1.036.506 1.913 1.18 2.63 2.11ZM4.56 13.47c.2-.802.454-1.58.813-2.198.359-.61.821-1.122 1.34-1.475a3.06 3.06 0 0 1 1.794-.562c.67 0 1.235.145 1.754.506a4.61 4.61 0 0 1 1.275 1.379c.36.617.614 1.283.822 2.1.207.819.319 1.645.319 2.567l-.016.305c0 .922-.096 1.844-.256 2.662-.199.826-.462 1.54-.82 2.165a4.466 4.466 0 0 1-1.324 1.427c-.51.361-1.133.514-1.794.514-.678 0-1.292-.16-1.81-.514a4.47 4.47 0 0 1-1.332-1.443c-.319-.505-.558-1.219-.773-2.085-.208-.826-.263-1.764-.263-2.678 0-.922.055-1.845.255-2.663l.016-.008Zm19.407 0c.207-.802.462-1.58.821-2.198.359-.61.821-1.122 1.331-1.475a3.114 3.114 0 0 1 1.794-.562c.67 0 1.236.145 1.755.506.51.353.917.802 1.275 1.379.36.617.614 1.283.822 2.1.215.819.319 1.645.319 2.567v.305c0 .922-.104 1.844-.256 2.662-.207.826-.462 1.54-.82 2.165a4.509 4.509 0 0 1-1.34 1.427c-.51.361-1.117.514-1.794.514-.67 0-1.276-.16-1.794-.514a4.404 4.404 0 0 1-1.34-1.443c-.367-.61-.622-1.323-.83-2.149-.198-.818-.254-1.74-.254-2.662.056-.882.16-1.796.319-2.614l-.008-.008Z" clip-rule="evenodd" fill="#FFF" fill-rule="evenodd"/></svg>